<?xml version="1.0" encoding="UTF-8" standalone="no"?>
<svg width="235px" height="80px" viewBox="0 0 235 80" version="1.1" xmlns="http://www.w3.org/2000/svg" xmlns:xlink="http://www.w3.org/1999/xlink">
    <!-- Generator: Sketch 49.1 (51147) - http://www.bohemiancoding.com/sketch -->
    <title>Group 13</title>
    <desc>Created with Sketch.</desc>
    <defs></defs>
    <g id="Website" stroke="none" stroke-width="1" fill="none" fill-rule="evenodd">
        <g id="Home" transform="translate(-1027.000000, -3529.000000)">
            <g id="Group-13" transform="translate(1027.000000, 3529.000000)">
                <rect id="Rectangle-2" fill="#FFFFFF" x="0" y="0" width="235" height="80"></rect>
                <g id="BW_Logo_black_RBG_WEB" transform="translate(41.000000, 25.000000)" fill="#313E48" fill-rule="nonzero">
                    <path d="M21.6796875,15.7734375 L18.75,17.53125 L20.71875,18.703125 C21.0234375,18.890625 21.2109375,19.1953125 21.2109375,19.546875 C21.2109375,19.8984375 21.0234375,20.2265625 20.71875,20.390625 L10.1015625,26.71875 C9.9375,26.8125 9.7734375,26.859375 9.5859375,26.859375 C9.4453125,26.859375 9.2109375,26.8359375 9,26.671875 L3.5859375,22.78125 C3.328125,22.59375 3.1640625,22.2890625 3.1640625,21.984375 L3.1640625,17.0859375 C3.1640625,16.7578125 3.328125,16.4765625 3.5859375,16.2890625 L9,12.3984375 C9.2109375,12.234375 9.421875,12.2109375 9.5859375,12.2109375 C9.7734375,12.2109375 9.9375,12.2578125 10.1015625,12.3515625 L14.53125,15 L10.1015625,17.6484375 C9.9375,17.7421875 9.7734375,17.7890625 9.5859375,17.7890625 C9.4453125,17.7890625 9.2109375,17.765625 9,17.6015625 L6.515625,15.8203125 L4.5,17.25 L4.5,18.0703125 L7.265625,20.0390625 C7.96875,20.53125 8.765625,20.7890625 9.5859375,20.7890625 C10.2890625,20.7890625 10.9921875,20.6015625 11.625,20.2265625 L22.21875,13.8984375 C23.4140625,13.171875 24.1640625,11.8828125 24.1640625,10.4765625 C24.1640625,9.0703125 23.4140625,7.7578125 22.21875,7.0546875 L11.625,0.7265625 C10.9921875,0.3515625 10.2890625,0.1640625 9.5859375,0.1640625 C8.765625,0.1640625 7.9453125,0.421875 7.265625,0.9140625 L1.875,4.7578125 C0.8203125,5.5078125 0.2109375,6.7265625 0.2109375,7.9921875 L0.2109375,12.890625 C0.2109375,13.6640625 0.4921875,14.34375 0.890625,14.9765625 C0.4921875,15.609375 0.2109375,16.3125 0.2109375,17.0625 L0.2109375,21.9609375 C0.2109375,23.25 0.8203125,24.4453125 1.875,25.1953125 L7.2890625,29.0859375 C7.9921875,29.578125 8.7890625,29.8359375 9.609375,29.8359375 C10.3125,29.8359375 11.015625,29.6484375 11.6484375,29.2734375 L22.2421875,22.9453125 C23.4375,22.21875 24.1875,20.9296875 24.1875,19.5234375 C24.1875,18.1171875 23.4375,16.8046875 22.2421875,16.1015625 L21.6796875,15.7734375 Z M3.609375,7.1953125 L9.0234375,3.3046875 C9.234375,3.140625 9.4453125,3.1171875 9.609375,3.1171875 C9.796875,3.1171875 9.9609375,3.1640625 10.125,3.2578125 L20.71875,9.5859375 C21.0234375,9.7734375 21.2109375,10.078125 21.2109375,10.4296875 C21.2109375,10.78125 21.0234375,11.109375 20.71875,11.2734375 L17.4609375,13.21875 L11.6484375,9.75 C11.015625,9.375 10.3125,9.1875 9.609375,9.1875 C8.7890625,9.1875 7.96875,9.4453125 7.2890625,9.9375 L3.2109375,12.890625 L3.2109375,8.015625 C3.2109375,7.6875 3.3515625,7.3828125 3.609375,7.1953125 Z" id="Shape"></path>
                    <g id="Group" transform="translate(39.140625, 4.687500)">
                        <path d="M0.1171875,20.1328125 L0.1171875,0.0703125 L8.2734375,0.0703125 C9.890625,0.0703125 11.2734375,0.609375 12.421875,1.6875 C13.5703125,2.765625 14.1328125,3.984375 14.1328125,5.390625 C14.1328125,6.1875 13.96875,6.9375 13.640625,7.59375 C13.3125,8.2734375 12.984375,8.7421875 12.65625,9 L12.140625,9.3984375 C12.2109375,9.4453125 12.328125,9.4921875 12.4453125,9.5859375 C12.5859375,9.6796875 12.8203125,9.8671875 13.171875,10.171875 C13.5234375,10.4765625 13.828125,10.78125 14.0859375,11.1328125 C14.34375,11.484375 14.578125,11.953125 14.7890625,12.515625 C15,13.078125 15.1171875,13.6640625 15.1171875,14.2734375 C15.1171875,15.890625 14.5078125,17.25 13.265625,18.421875 C12.046875,19.5703125 10.5,20.15625 8.671875,20.15625 L0.1171875,20.15625 L0.1171875,20.1328125 Z M3.2578125,2.7890625 L3.2578125,8.2265625 L8.2734375,8.2265625 C9.046875,8.2265625 9.703125,7.96875 10.21875,7.453125 C10.734375,6.9375 10.9921875,6.28125 10.9921875,5.5078125 C10.9921875,4.734375 10.734375,4.078125 10.21875,3.5625 C9.703125,3.046875 9.046875,2.7890625 8.2734375,2.7890625 C8.2734375,2.7890625 3.2578125,2.7890625 3.2578125,2.7890625 Z M8.71875,17.390625 C9.65625,17.390625 10.4296875,17.0859375 11.0625,16.453125 C11.6953125,15.8203125 12,15.046875 12,14.109375 C12,13.171875 11.6953125,12.3984375 11.0625,11.765625 C10.4296875,11.1328125 9.65625,10.828125 8.6953125,10.828125 L3.2578125,10.828125 L3.2578125,17.4140625 L8.71875,17.4140625 L8.71875,17.390625 Z" id="Shape"></path>
                        <path d="M25.125,8.671875 C24.0234375,8.671875 23.15625,9.0234375 22.5234375,9.7265625 C21.8671875,10.4296875 21.5390625,11.4140625 21.5390625,12.6796875 L21.5390625,20.1328125 L18.6796875,20.1328125 L18.6796875,6.375 L21.5390625,6.375 L21.5390625,7.8046875 L21.7265625,7.6171875 C21.8203125,7.5234375 21.984375,7.40625 22.265625,7.1953125 C22.546875,7.0078125 22.828125,6.84375 23.1328125,6.6796875 C23.4375,6.515625 23.8125,6.375 24.28125,6.2578125 C24.75,6.140625 25.21875,6.0703125 25.7109375,6.0703125 L26.4140625,6.0703125 L26.4140625,8.7890625 C26.015625,8.71875 25.59375,8.671875 25.125,8.671875 Z" id="Shape"></path>
                        <path d="M31.4765625,3.3046875 C31.1484375,3.6328125 30.7265625,3.796875 30.234375,3.796875 C29.7421875,3.796875 29.3203125,3.6328125 28.9921875,3.3046875 C28.6640625,2.9765625 28.5,2.578125 28.5,2.0625 C28.5,1.546875 28.6640625,1.1484375 28.9921875,0.8203125 C29.3203125,0.4921875 29.71875,0.328125 30.234375,0.328125 C30.7265625,0.328125 31.1484375,0.4921875 31.4765625,0.8203125 C31.8046875,1.1484375 31.96875,1.546875 31.96875,2.0625 C31.96875,2.578125 31.8046875,2.9765625 31.4765625,3.3046875 Z M31.6640625,20.1328125 L28.78125,20.1328125 L28.78125,6.375 L31.6640625,6.375 L31.6640625,20.1328125 Z" id="Shape"></path>
                        <path d="M37.5234375,1.78125 L40.1015625,1.78125 L40.1015625,6.375 L42.9609375,6.375 L42.9609375,8.953125 L40.1015625,8.953125 L40.1015625,16.078125 C40.1015625,16.59375 40.265625,17.015625 40.59375,17.34375 C40.921875,17.671875 41.3203125,17.8359375 41.8359375,17.8359375 C42.046875,17.8359375 42.28125,17.8125 42.515625,17.765625 C42.75,17.71875 42.9375,17.671875 43.078125,17.6015625 L43.2890625,17.5546875 L43.2890625,20.1328125 C42.7265625,20.3203125 42.046875,20.4140625 41.2734375,20.4140625 C38.6015625,20.4140625 37.265625,18.984375 37.265625,16.125 L37.265625,8.953125 L34.6875,8.953125 L34.6875,6.375 L36.1171875,6.375 C37.078125,6.375 37.546875,5.7890625 37.546875,4.6640625 L37.5234375,1.78125 Z" id="Shape"></path>
                        <path d="M47.5078125,14.25 C47.6484375,15.2109375 48.140625,16.0546875 48.9375,16.78125 C49.734375,17.484375 50.6953125,17.8359375 51.8203125,17.8359375 C52.6171875,17.8359375 53.3671875,17.6484375 54.0703125,17.296875 C54.7734375,16.9453125 55.265625,16.5703125 55.546875,16.2421875 L55.9921875,15.703125 L57.84375,17.5546875 C57.7734375,17.625 57.703125,17.7421875 57.5859375,17.859375 C57.46875,17.9765625 57.2109375,18.2109375 56.8359375,18.5390625 C56.4609375,18.8671875 56.0390625,19.1484375 55.6171875,19.3828125 C55.1953125,19.6171875 54.6328125,19.8515625 53.953125,20.0625 C53.2734375,20.2734375 52.5703125,20.390625 51.8203125,20.390625 C49.875,20.390625 48.1875,19.6640625 46.78125,18.234375 C45.375,16.8046875 44.6484375,15.09375 44.6484375,13.078125 C44.6484375,11.15625 45.328125,9.4921875 46.7109375,8.109375 C48.09375,6.7265625 49.734375,6.046875 51.65625,6.046875 C53.578125,6.046875 55.1953125,6.6796875 56.4609375,7.96875 C57.75,9.2578125 58.3828125,10.8515625 58.3828125,12.796875 L58.21875,14.2265625 L47.5078125,14.2265625 L47.5078125,14.25 Z M49.078125,9.4453125 C48.375,10.0546875 47.90625,10.8515625 47.6484375,11.8125 L55.6171875,11.8125 C55.453125,10.8515625 55.0078125,10.0546875 54.3046875,9.4453125 C53.6015625,8.8359375 52.734375,8.53125 51.6796875,8.53125 C50.6484375,8.53125 49.78125,8.8359375 49.078125,9.4453125 Z" id="Shape"></path>
                        <path d="M71.6953125,6.375 L74.8359375,15.84375 L78,6.375 L81.0234375,6.375 L76.2890625,20.1328125 L73.5703125,20.1328125 L70.4296875,10.96875 L67.2890625,20.1328125 L64.5703125,20.1328125 L59.8359375,6.375 L62.8125,6.375 L65.9765625,15.84375 L69.1171875,6.375 C69.1171875,6.375 71.6953125,6.375 71.6953125,6.375 Z" id="Shape"></path>
                        <path d="M85.21875,14.25 C85.359375,15.2109375 85.8515625,16.0546875 86.6484375,16.78125 C87.4453125,17.484375 88.40625,17.8359375 89.53125,17.8359375 C90.328125,17.8359375 91.078125,17.6484375 91.78125,17.296875 C92.484375,16.9453125 92.9765625,16.5703125 93.2578125,16.2421875 L93.703125,15.703125 L95.5546875,17.5546875 C95.484375,17.625 95.4140625,17.7421875 95.296875,17.859375 C95.1796875,18 94.921875,18.2109375 94.546875,18.5390625 C94.171875,18.8671875 93.75,19.1484375 93.328125,19.3828125 C92.90625,19.6171875 92.34375,19.8515625 91.6640625,20.0625 C90.984375,20.2734375 90.28125,20.390625 89.53125,20.390625 C87.5859375,20.390625 85.8984375,19.6640625 84.4921875,18.234375 C83.0859375,16.8046875 82.359375,15.09375 82.359375,13.078125 C82.359375,11.15625 83.0390625,9.4921875 84.421875,8.109375 C85.8046875,6.7265625 87.4453125,6.046875 89.3671875,6.046875 C91.2890625,6.046875 92.90625,6.6796875 94.171875,7.96875 C95.4609375,9.2578125 96.09375,10.8515625 96.09375,12.796875 L95.9296875,14.2265625 L85.21875,14.2265625 L85.21875,14.25 Z M86.765625,9.4453125 C86.0625,10.0546875 85.59375,10.8515625 85.3359375,11.8125 L93.3046875,11.8125 C93.140625,10.8515625 92.6953125,10.0546875 91.9921875,9.4453125 C91.2890625,8.8359375 90.421875,8.53125 89.3671875,8.53125 C88.359375,8.53125 87.46875,8.8359375 86.765625,9.4453125 Z" id="Shape"></path>
                        <path d="M111.539062,8.1796875 C112.875,9.5859375 113.53125,11.2734375 113.53125,13.265625 C113.53125,15.2578125 112.875,16.9453125 111.515625,18.328125 C110.179687,19.734375 108.609375,20.4140625 106.78125,20.4140625 C106.265625,20.4140625 105.773437,20.34375 105.28125,20.2265625 C104.789062,20.109375 104.367187,19.9453125 104.039062,19.78125 C103.6875,19.59375 103.382812,19.40625 103.125,19.21875 C102.867188,19.03125 102.679688,18.8671875 102.5625,18.7734375 L102.351563,18.5625 L102.351563,20.15625 L99.4921875,20.15625 L99.4921875,0.0703125 L102.351563,0.0703125 L102.351563,7.96875 C102.46875,7.8515625 102.65625,7.6640625 102.914062,7.453125 C103.148438,7.2421875 103.664063,6.9609375 104.4375,6.609375 C105.210938,6.2578125 106.007813,6.09375 106.804688,6.09375 C108.632812,6.0703125 110.226562,6.7734375 111.539062,8.1796875 Z M109.429688,16.4765625 C110.273438,15.5859375 110.695312,14.5078125 110.695312,13.2421875 C110.695312,11.9765625 110.273438,10.8984375 109.429688,10.0078125 C108.585938,9.1171875 107.625,8.671875 106.546875,8.671875 C105.46875,8.671875 104.484375,9.1171875 103.640625,10.0078125 C102.796875,10.8984375 102.375,11.9765625 102.375,13.2421875 C102.375,14.5078125 102.796875,15.5859375 103.640625,16.4765625 C104.484375,17.3671875 105.445313,17.8125 106.546875,17.8125 C107.625,17.8359375 108.585938,17.390625 109.429688,16.4765625 Z" id="Shape"></path>
                    </g>
                </g>
            </g>
        </g>
    </g>
</svg>