<?xml version="1.0" encoding="UTF-8" standalone="no"?>
<svg width="235px" height="80px" viewBox="0 0 235 80" version="1.1" xmlns="http://www.w3.org/2000/svg" xmlns:xlink="http://www.w3.org/1999/xlink">
    <!-- Generator: Sketch 49.1 (51147) - http://www.bohemiancoding.com/sketch -->
    <title>Group 9</title>
    <desc>Created with Sketch.</desc>
    <defs>
        <path d="M13.6239308,0.135 L15.6595451,0.135 L15.6595451,4.62 L20.9612569,4.62 L20.9612569,0.135 L22.9968712,0.135 L22.9968712,10.635 L20.9612569,10.635 L20.9612569,6.375 L15.6595451,6.375 L15.6595451,10.635 L13.6239308,10.635 L13.6239308,0.135 Z M48.4952186,0.705 C49.3611142,1.175 50.0421842,1.82 50.5384285,2.64 C51.0346727,3.46 51.2827949,4.37 51.2827949,5.37 C51.2827949,6.37 51.0346727,7.2825 50.5384285,8.1075 C50.0421842,8.9325 49.3611142,9.585 48.4952186,10.065 C47.629323,10.545 46.6697486,10.785 45.6164954,10.785 C44.5632423,10.785 43.6036679,10.545 42.7377723,10.065 C41.8718766,9.585 41.1908067,8.9325 40.6945624,8.1075 C40.1983181,7.2825 39.950196,6.37 39.950196,5.37 C39.950196,4.37 40.1983181,3.46 40.6945624,2.64 C41.1908067,1.82 41.8718766,1.175 42.7377723,0.705 C43.6036679,0.235 44.5632423,0 45.6164954,0 C46.6697486,0 47.629323,0.235 48.4952186,0.705 Z M43.8391307,2.2725 C43.2821219,2.5875 42.8415785,3.0175 42.5175006,3.5625 C42.1934227,4.1075 42.0313837,4.71 42.0313837,5.37 C42.0313837,6.03 42.1959545,6.635 42.5250962,7.185 C42.8542378,7.735 43.2947811,8.17 43.8467263,8.49 C44.3986715,8.81 44.998722,8.97 45.6468777,8.97 C46.2849061,8.97 46.877361,8.81 47.4242424,8.49 C47.9711239,8.17 48.4040717,7.735 48.7230859,7.185 C49.0421,6.635 49.2016071,6.03 49.2016071,5.37 C49.2016071,4.71 49.0421,4.1075 48.7230859,3.5625 C48.4040717,3.0175 47.9711239,2.5875 47.4242424,2.2725 C46.877361,1.9575 46.2849061,1.8 45.6468777,1.8 C44.998722,1.8 44.3961396,1.9575 43.8391307,2.2725 Z M62.5774158,0.135 L64.5522655,0.135 L64.5522655,10.635 L62.6229893,10.635 L57.1541748,3.405 L57.1541748,10.635 L55.164134,10.635 L55.164134,0.135 L57.0934102,0.135 L62.5774158,7.38 L62.5774158,0.135 Z M69.2539268,0.135 L71.2895411,0.135 L71.2895411,10.635 L69.2539268,10.635 L69.2539268,0.135 Z M82.3638904,2.16 C81.852455,1.92 81.333424,1.8 80.8067974,1.8 C80.1485142,1.8 79.5459318,1.955 78.9990504,2.265 C78.4521689,2.575 78.021753,3.0025 77.7078025,3.5475 C77.3938521,4.0925 77.2368768,4.69 77.2368768,5.34 C77.2368768,5.99 77.3938521,6.5875 77.7078025,7.1325 C78.021753,7.6775 78.4521689,8.1075 78.9990504,8.4225 C79.5459318,8.7375 80.1485142,8.895 80.8067974,8.895 C81.3131691,8.895 81.8220727,8.785 82.3335081,8.565 C82.8449435,8.345 83.2981462,8.04 83.6931161,7.65 L84.8932171,8.97 C84.3362082,9.53 83.6880524,9.9725 82.9487497,10.2975 C82.209447,10.6225 81.4600169,10.785 80.7004593,10.785 C79.6775885,10.785 78.7408008,10.545 77.8900963,10.065 C77.0393919,9.585 76.3709812,8.9325 75.8848644,8.1075 C75.3987475,7.2825 75.1556891,6.37 75.1556891,5.37 C75.1556891,4.37 75.4038112,3.46 75.9000555,2.64 C76.3962998,1.82 77.072306,1.175 77.9280742,0.705 C78.7838424,0.235 79.7332894,0 80.7764151,0 C81.5359726,0 82.2803391,0.15 83.0095143,0.45 C83.7386896,0.75 84.3615268,1.165 84.8780259,1.695 L83.6931161,3.165 C83.3184011,2.735 82.8753258,2.4 82.3638904,2.16 Z M88.653027,0.135 L90.6886413,0.135 L90.6886413,8.82 L95.276369,8.82 L95.276369,10.635 L88.653027,10.635 L88.653027,0.135 Z M98.9602232,0.135 L106.935578,0.135 L106.935578,1.89 L100.995837,1.89 L100.995837,4.485 L105.33308,4.485 L105.33308,6.24 L100.995837,6.24 L100.995837,8.88 L106.935578,8.88 L106.935578,10.635 L98.9602232,10.635 L98.9602232,0.135 Z M118.366919,0.8025 C119.207496,1.2475 119.865779,1.87 120.341769,2.67 C120.817758,3.47 121.055753,4.375 121.055753,5.385 C121.055753,6.395 120.815226,7.2975 120.334173,8.0925 C119.85312,8.8875 119.187241,9.51 118.336537,9.96 C117.485832,10.41 116.518662,10.635 115.435027,10.635 L111.090357,10.635 L111.090357,0.135 L115.510982,0.135 C116.574363,0.135 117.526342,0.3575 118.366919,0.8025 Z M117.311134,8.4225 C117.832697,8.1275 118.240326,7.7175 118.534022,7.1925 C118.827717,6.6675 118.974565,6.07 118.974565,5.4 C118.974565,4.73 118.822653,4.1275 118.51883,3.5925 C118.215007,3.0575 117.797251,2.6425 117.26556,2.3475 C116.73387,2.0525 116.138883,1.905 115.4806,1.905 L113.125972,1.905 L113.125972,8.865 L115.556556,8.865 C116.204712,8.865 116.789571,8.7175 117.311134,8.4225 Z M7.33479421,2.16 C6.82335878,1.92 6.30432778,1.8 5.7777012,1.8 C5.11941798,1.8 4.51683565,1.955 3.9699542,2.265 C3.42307276,2.575 2.9926568,3.0025 2.67870634,3.5475 C2.36475588,4.0925 2.20778065,4.69 2.20778065,5.34 C2.20778065,5.99 2.36475588,6.5875 2.67870634,7.1325 C2.9926568,7.6775 3.42307276,8.1075 3.9699542,8.4225 C4.51683565,8.7375 5.11941798,8.895 5.7777012,8.895 C6.28407291,8.895 6.79297648,8.785 7.30441191,8.565 C7.81584733,8.345 8.26905001,8.04 8.66401995,7.65 L9.8641209,8.97 C9.30711202,9.53 8.65895623,9.9725 7.91965353,10.2975 C7.18035084,10.6225 6.43092071,10.785 5.67136314,10.785 C4.64849229,10.785 3.71170463,10.545 2.86100016,10.065 C2.01029569,9.585 1.34188503,8.9325 0.855768189,8.1075 C0.369651348,7.2825 0.126592927,6.37 0.126592927,5.37 C0.126592927,4.37 0.374715065,3.46 0.87095934,2.64 C1.36720362,1.82 2.04320985,1.175 2.89897804,0.705 C3.75474622,0.235 4.70419318,0 5.7473189,0 C6.50687647,0 7.25124288,0.15 7.98041814,0.45 C8.7095934,0.75 9.3324306,1.165 9.84892975,1.695 L8.66401995,3.165 C8.28930488,2.735 7.84622964,2.4 7.33479421,2.16 Z M34.8160932,6.78883333 C35.0702243,6.89766667 35.298041,7.05833333 35.49956,7.2705 C35.9136539,7.70666667 36.1206924,8.33083333 36.1206924,9.14283333 L36.1206924,10.7523333 L34.1663846,10.7523333 L34.1663846,9.30833333 C34.1663846,8.74083333 33.6708492,7.63016667 32.0458855,7.564 C32.0284157,7.56416667 29.6754077,7.56416667 29.6754077,7.56416667 L29.6754077,10.6621667 L27.6453635,10.6621667 L27.6453635,0.135 L31.9933073,0.135 C33.3264827,0.135 34.3591772,0.450833333 35.0914075,1.0825 C35.8236548,1.714 36.1897615,2.60633333 36.1897615,3.75933333 C36.1897615,4.9625 35.8236548,5.89733333 35.0914075,6.56416667 C35.0039234,6.64366667 34.912152,6.71866667 34.8160932,6.78883333 Z M33.6521979,5.29333333 C34.0612449,4.9625 34.2657516,4.47116667 34.2657516,3.8195 C34.2657516,3.17783333 34.0612449,2.69666667 33.6521979,2.37583333 C33.2431508,2.055 32.6548482,1.8945 31.8872562,1.8945 L29.6754077,1.8945 L29.6754077,5.78966667 L31.8872562,5.78966667 C32.6548482,5.78966667 33.2431508,5.62416667 33.6521979,5.29333333 Z" id="path-1"></path>
        <path d="M10.0813544,24.3713333 C11.8061408,25.5471667 13.8902486,26.25 16.1405982,26.25 C18.6827361,26.25 21.012738,25.3531667 22.8238102,23.8625 L24.1712147,25.1928333 C22.0126196,27.0207167 19.2072191,28.125 16.1405982,28.125 C14.0542455,28.125 12.0887975,27.6138667 10.365699,26.7115 L8.95972415,28.0842167 C11.0680028,29.3020333 13.521745,30 16.1405982,30 C19.7316514,30 23.0122649,28.6876333 25.5173701,26.5221667 L26.8627154,27.8505333 C24.0117751,30.3541333 20.2560499,31.875 16.1405982,31.875 C12.3157533,31.875 8.8016349,30.5613333 6.03576511,28.366 L10.0813544,24.3713333 Z M5.28679071,26.4538333 L4.62622882,27.10615 C1.76490796,24.2303333 0,20.2875 0,15.9375 C0,7.1355 7.22639691,0 16.1405982,0 C20.5459815,0 24.5391275,1.74266667 27.451575,4.568 L26.1087954,5.89383333 C23.5400392,3.40783333 20.0216167,1.875 16.1405982,1.875 C8.27512647,1.875 1.89889391,8.171 1.89889391,15.9375 C1.89889391,19.0955 2.95312605,22.0103333 4.73305637,24.3576667 L6.09820074,23.0248333 C4.65011268,21.0278333 3.79778782,18.581 3.79778782,15.9375 C3.79778782,9.2065 9.32385604,3.75 16.1405982,3.75 C19.4972519,3.75 22.5409341,5.073 24.7659989,7.21983333 L21.2374996,10.7038333 L20.7373393,11.1978333 L20.5507245,11.0278333 C19.3773937,9.9995 17.8328587,9.375 16.1405982,9.375 C12.4700447,9.375 9.49446955,12.3131667 9.49446955,15.9375 C9.49446955,19.5618333 12.4700447,22.5 16.1405982,22.5 C17.6334496,22.5 19.0113376,22.014 20.1208487,21.1935 L21.4742958,22.5298333 C20.0124514,23.6845 18.1581857,24.375 16.1405982,24.375 C11.4213152,24.375 7.59557564,20.5973333 7.59557564,15.9375 C7.59557564,11.2776667 11.4213152,7.5 16.1405982,7.5 C17.7617304,7.5 19.2774359,7.94583333 20.5688357,8.72 L21.9531041,7.36833333 C20.2915128,6.26733333 18.2920197,5.625 16.1405982,5.625 C10.3725856,5.625 5.69668173,10.242 5.69668173,15.9375 C5.69668173,18.7341667 6.82410146,21.2708333 8.65463519,23.1285 L5.28679071,26.4538333 Z M26.5845147,15.9375 C26.5845147,13.7155 25.8727924,11.6576667 24.6621758,9.974 L26.0211425,8.63216667 C27.5673653,10.6678333 28.4834087,13.197 28.4834087,15.9375 C28.4834087,18.9655 27.365053,21.7356667 25.5139437,23.867 L24.1665223,22.5366667 C25.6762527,20.7483333 26.5845147,18.4476667 26.5845147,15.9375 Z" id="path-3"></path>
    </defs>
    <g id="Website" stroke="none" stroke-width="1" fill="none" fill-rule="evenodd">
        <g id="Home" transform="translate(-179.000000, -3629.000000)">
            <g id="Group-9" transform="translate(179.000000, 3629.000000)">
                <rect id="Rectangle-2" fill="#FFFFFF" x="0" y="0" width="235" height="80"></rect>
                <g id="Group-2" transform="translate(38.000000, 24.000000)">
                    <g id="Group-67" transform="translate(37.471506, 10.500000)">
                        <mask id="mask-2" fill="white">
                            <use xlink:href="#path-1"></use>
                        </mask>
                        <g id="Clip-66"></g>
                        <polygon id="Fill-65" fill="#232323" mask="url(#mask-2)" points="-1.56131277 12.4516667 122.743658 12.4516667 122.743658 -1.66666667 -1.56131277 -1.66666667"></polygon>
                    </g>
                    <g id="Group-70">
                        <mask id="mask-4" fill="white">
                            <use xlink:href="#path-3"></use>
                        </mask>
                        <g id="Clip-69"></g>
                        <polygon id="Fill-68" fill="#232323" mask="url(#mask-4)" points="-1.6879057 33.5416667 30.1713143 33.5416667 30.1713143 -1.66666667 -1.6879057 -1.66666667"></polygon>
                    </g>
                </g>
            </g>
        </g>
    </g>
</svg>