<?xml version="1.0" encoding="UTF-8" standalone="no"?>
<svg width="235px" height="80px" viewBox="0 0 235 80" version="1.1" xmlns="http://www.w3.org/2000/svg" xmlns:xlink="http://www.w3.org/1999/xlink">
    <!-- Generator: Sketch 49.1 (51147) - http://www.bohemiancoding.com/sketch -->
    <title>Group 6</title>
    <desc>Created with Sketch.</desc>
    <defs></defs>
    <g id="Website" stroke="none" stroke-width="1" fill="none" fill-rule="evenodd">
        <g id="Home" transform="translate(-179.000000, -3529.000000)">
            <g id="Group-6" transform="translate(179.000000, 3529.000000)">
                <rect id="Rectangle-2" fill="#FFFFFF" x="0" y="0" width="235" height="80"></rect>
                <g id="Group-5" transform="translate(55.000000, 24.000000)" fill="#263238" fill-rule="nonzero">
                    <path d="M24.1398186,8.31304348 L18.4391617,1.07826087 C18.0872693,0.660869565 17.4186738,0.313043478 16.8556459,0.313043478 L7.74163278,0.313043478 C7.17860494,0.313043478 6.51000938,0.626086957 6.15811698,1.07826087 L0.457460119,8.31304348 C0.10556772,8.73043478 -0.0351892399,9.46086957 0.0703784798,9.9826087 L2.11135439,19.026087 C2.21692211,19.4782609 2.53362527,20.1391304 2.81513919,20.5217391 L11.4716922,31.4782609 C11.6828277,31.7565217 11.9995308,31.8956522 12.316234,31.8956522 C12.6329371,31.8956522 12.9496403,31.7565217 13.1607757,31.4782609 L21.7821395,20.5217391 C22.0636534,20.1391304 22.3803566,19.5130435 22.4859243,19.026087 L24.5269002,9.9826087 C24.6676572,9.46086957 24.491711,8.73043478 24.1398186,8.31304348 Z M17.2427276,1.9826087 L22.8378167,9.04347826 L16.8204567,12 L8.7269315,1.77391304 L16.8556459,1.77391304 C16.9612136,1.80869565 17.2075383,1.91304348 17.2427276,1.9826087 Z M1.51313732,9.66956522 C1.47794808,9.56521739 1.54832656,9.28695652 1.61870504,9.2173913 L7.17860494,2.19130435 L15.4480763,12.626087 L3.51892399,18.4695652 L1.51313732,9.66956522 Z M21.0431655,18.7130435 C20.972787,18.9565217 20.7616515,19.4086957 20.6208946,19.6173913 L12.2810447,30.1217391 L4.15233031,19.7913043 L22.8730059,10.6434783 L21.0431655,18.7130435 Z" id="Shape"></path>
                    <g id="Group" transform="translate(30.966531, 6.956522)">
                        <path d="M0.0703784798,0.765217391 L6.54519862,0.765217391 C7.91757898,0.765217391 9.14920238,0.939130435 10.2752581,1.25217391 C11.4013137,1.6 12.3866124,2.08695652 13.195965,2.7826087 C14.0053175,3.47826087 14.6387238,4.34782609 15.0961839,5.42608696 C15.553644,6.50434783 15.7647795,7.75652174 15.7647795,9.2173913 C15.7647795,10.6086957 15.5184548,11.826087 15.0609947,12.8347826 C14.6035346,13.8782609 13.9701282,14.7130435 13.1255865,15.4086957 C12.316234,16.1043478 11.3309353,16.626087 10.2048796,16.973913 C9.0788239,17.3217391 7.8472005,17.4956522 6.51000938,17.4956522 L0.0703784798,17.4956522 L0.0703784798,0.765217391 Z M6.22849546,14.7130435 C8.1990929,14.7130435 9.71223022,14.2608696 10.7679074,13.3217391 C11.8235846,12.4173913 12.316234,11.0608696 12.316234,9.28695652 C12.316234,7.51304348 11.8235846,6.12173913 10.8734751,5.11304348 C9.92336566,4.10434783 8.3750391,3.5826087 6.22849546,3.5826087 L3.34297779,3.5826087 L3.34297779,14.7130435 L6.22849546,14.7130435 Z" id="Shape"></path>
                        <path d="M17.0667814,11.6173913 C17.0667814,10.7478261 17.2427276,9.94782609 17.5594307,9.1826087 C17.8761339,8.4173913 18.333594,7.75652174 18.8966218,7.2 C19.4596497,6.64347826 20.1634345,6.19130435 20.972787,5.84347826 C21.7821395,5.49565217 22.6618705,5.35652174 23.6471692,5.35652174 C24.6324679,5.35652174 25.5121989,5.53043478 26.3215515,5.84347826 C27.130904,6.19130435 27.8346888,6.64347826 28.3977166,7.2 C28.9607444,7.75652174 29.4182046,8.45217391 29.7349077,9.1826087 C30.0516109,9.94782609 30.2275571,10.7478261 30.2275571,11.6173913 C30.2275571,12.4869565 30.0516109,13.2869565 29.7349077,14.0521739 C29.4182046,14.8173913 28.9607444,15.4782609 28.3977166,16.0695652 C27.8346888,16.6608696 27.130904,17.1130435 26.3215515,17.426087 C25.5121989,17.773913 24.6324679,17.9130435 23.6471692,17.9130435 C22.6618705,17.9130435 21.7821395,17.7391304 20.972787,17.426087 C20.1634345,17.0782609 19.4596497,16.626087 18.8966218,16.0695652 C18.333594,15.4782609 17.8761339,14.8173913 17.5594307,14.0521739 C17.2075383,13.2869565 17.0667814,12.4521739 17.0667814,11.6173913 Z M23.6471692,15.3391304 C24.2453863,15.3391304 24.7380357,15.2347826 25.1954958,14.9913043 C25.6177667,14.7478261 26.0048483,14.4695652 26.2863622,14.0869565 C26.5678761,13.7043478 26.7790116,13.3217391 26.9197685,12.8695652 C27.0605255,12.4173913 27.130904,12 27.130904,11.5478261 C27.130904,11.1304348 27.0605255,10.7130435 26.9197685,10.2608696 C26.7790116,9.80869565 26.5678761,9.42608696 26.2863622,9.04347826 C26.0048483,8.69565217 25.6529559,8.3826087 25.1954958,8.17391304 C24.7732249,7.93043478 24.2453863,7.82608696 23.6471692,7.82608696 C23.0489521,7.82608696 22.5563028,7.93043478 22.0988427,8.17391304 C21.6765718,8.4173913 21.2894901,8.69565217 21.0079762,9.04347826 C20.7264623,9.39130435 20.5153269,9.80869565 20.3745699,10.2608696 C20.2338129,10.7130435 20.1634345,11.1304348 20.1634345,11.5478261 C20.1634345,12 20.2338129,12.4173913 20.3745699,12.8695652 C20.5153269,13.3217391 20.7264623,13.7043478 21.0079762,14.0869565 C21.2894901,14.4695652 21.6413825,14.7478261 22.0988427,14.9913043 C22.5211135,15.2347826 23.0489521,15.3391304 23.6471692,15.3391304 Z" id="Shape"></path>
                        <path d="M31.7055052,5.73913043 L34.6614013,5.73913043 L34.7317798,7.06086957 C34.8725368,6.88695652 35.048483,6.71304348 35.2596184,6.50434783 C35.4707538,6.29565217 35.7170785,6.15652174 35.9985924,5.9826087 C36.2801063,5.84347826 36.6319987,5.70434783 36.9838911,5.6 C37.3709728,5.49565217 37.7932437,5.46086957 38.285893,5.46086957 C39.9045981,5.46086957 41.1362215,6.0173913 41.945574,7.16521739 C42.5789803,6.53913043 43.2123866,6.12173913 43.8457929,5.84347826 C44.5143885,5.6 45.2533625,5.46086957 46.1330935,5.46086957 C47.6814201,5.46086957 48.8778542,5.91304348 49.6872068,6.7826087 C50.4965593,7.65217391 50.9188302,8.83478261 50.9188302,10.3304348 L50.9188302,17.4956522 L47.8573663,17.4956522 L47.8573663,10.3652174 C47.8573663,9.6 47.6462308,9.04347826 47.2591492,8.62608696 C46.8720676,8.20869565 46.344229,8 45.6404442,8 C45.2181733,8 44.8310916,8.06956522 44.4791992,8.24347826 C44.1273069,8.4173913 43.8457929,8.62608696 43.564279,8.90434783 C43.3179543,9.1826087 43.1068189,9.53043478 43.0012512,9.91304348 C42.8604942,10.2956522 42.7901157,10.7130435 42.7901157,11.1304348 L42.7901157,17.4956522 L39.7638411,17.4956522 L39.7638411,10.3652174 C39.7638411,9.6 39.5527057,9.04347826 39.165624,8.62608696 C38.7785424,8.20869565 38.2507038,8 37.546919,8 C37.1246481,8 36.7375665,8.06956522 36.3856741,8.24347826 C36.0337817,8.4173913 35.7522678,8.62608696 35.4707538,8.90434783 C35.2244292,9.1826087 35.0132937,9.53043478 34.907726,9.91304348 C34.766969,10.2956522 34.6965906,10.7130435 34.6965906,11.1304348 L34.6965906,17.4956522 L31.6351267,17.4956522 L31.6351267,5.73913043 L31.7055052,5.73913043 Z" id="Shape"></path>
                        <path d="M60.4551142,16.4173913 C60.138411,16.8 59.6105724,17.1478261 58.9419769,17.4608696 C58.2733813,17.773913 57.499218,17.9130435 56.6898655,17.9130435 C56.1972161,17.9130435 55.6693775,17.8434783 55.1767282,17.6695652 C54.6840788,17.5304348 54.2266187,17.2869565 53.8043478,16.973913 C53.3820769,16.6608696 53.0653738,16.2782609 52.8190491,15.7913043 C52.5727244,15.3043478 52.4319675,14.7478261 52.4319675,14.0869565 C52.4319675,13.426087 52.5727244,12.8347826 52.8190491,12.2782609 C53.0653738,11.7565217 53.4524554,11.3043478 53.9099155,10.9565217 C54.3673757,10.6086957 54.9304035,10.3304348 55.5989991,10.1565217 C56.2675946,9.9826087 57.0065687,9.87826087 57.7807319,9.87826087 C58.0270566,9.87826087 58.3085705,9.87826087 58.5900845,9.87826087 C58.8715984,9.87826087 59.1883015,9.91304348 59.4346262,9.91304348 C59.7513294,9.91304348 60.0680325,9.94782609 60.3847357,9.94782609 L60.3847357,9.66956522 C60.3847357,9.07826087 60.138411,8.62608696 59.6457617,8.27826087 C59.1531123,7.93043478 58.519706,7.79130435 57.7455427,7.79130435 C56.8658117,7.79130435 56.1972161,7.89565217 55.6693775,8.10434783 C55.1415389,8.31304348 54.6840788,8.55652174 54.2969972,8.8 L52.8894276,6.7826087 C53.1357523,6.60869565 53.4172662,6.43478261 53.7339693,6.26086957 C54.0506725,6.08695652 54.4025649,5.91304348 54.8248358,5.77391304 C55.2471067,5.63478261 55.739756,5.53043478 56.2675946,5.42608696 C56.8306225,5.32173913 57.4640288,5.28695652 58.1678136,5.28695652 C58.9419769,5.28695652 59.6457617,5.39130435 60.279168,5.6 C60.9125743,5.80869565 61.4404129,6.08695652 61.897873,6.46956522 C62.3553331,6.85217391 62.7072255,7.30434783 62.9535502,7.82608696 C63.1998749,8.34782609 63.3054426,8.93913043 63.3054426,9.53043478 L63.3054426,17.4608696 L60.5254926,17.4608696 L60.4551142,16.4173913 Z M60.4551142,12.173913 C60.138411,12.173913 59.8217079,12.1391304 59.5401939,12.1391304 C59.2938693,12.1391304 59.0475446,12.1043478 58.7660307,12.1043478 C58.4845167,12.1043478 58.2733813,12.1043478 58.0622459,12.1043478 C57.0769471,12.1043478 56.3731623,12.2782609 55.9860807,12.6608696 C55.5989991,13.0434783 55.3878636,13.4608696 55.3878636,13.9478261 C55.3878636,14.4347826 55.5638098,14.8521739 55.9508915,15.1304348 C56.3379731,15.4086957 56.8658117,15.5478261 57.6047857,15.5478261 C57.9566781,15.5478261 58.3085705,15.4782609 58.6604629,15.373913 C59.0123553,15.2695652 59.2938693,15.0956522 59.5753832,14.8869565 C59.8217079,14.6782609 60.0328433,14.4347826 60.2087895,14.1913043 C60.3847357,13.9130435 60.4551142,13.6347826 60.4551142,13.3217391 L60.4551142,12.173913 Z" id="Shape"></path>
                        <polygon id="Shape" points="65.2408508 5.73913043 68.3023147 5.73913043 68.3023147 17.5304348 65.2408508 17.5304348"></polygon>
                        <path d="M70.1673444,5.73913043 L73.1232405,5.73913043 L73.193619,7.06086957 C73.334376,6.88695652 73.5455114,6.71304348 73.7566469,6.53913043 C73.9677823,6.36521739 74.2492962,6.19130435 74.5308101,6.0173913 C74.8475133,5.84347826 75.1642165,5.73913043 75.5512981,5.63478261 C75.9383797,5.53043478 76.3606506,5.49565217 76.8533,5.49565217 C78.3664373,5.49565217 79.5628714,5.94782609 80.3370347,6.8173913 C81.1463872,7.68695652 81.5334689,8.86956522 81.5334689,10.3652174 L81.5334689,17.5304348 L78.472005,17.5304348 L78.472005,10.3652174 C78.472005,9.6 78.2608696,9.04347826 77.8385987,8.62608696 C77.4163278,8.20869565 76.8533,8 76.1847044,8 C75.7624335,8 75.3753519,8.06956522 75.0234595,8.24347826 C74.6715671,8.4173913 74.3548639,8.62608696 74.07335,8.90434783 C73.8270253,9.1826087 73.6158899,9.53043478 73.4751329,9.91304348 C73.334376,10.2956522 73.2639975,10.7130435 73.2639975,11.1304348 L73.2639975,17.4956522 L70.2025336,17.4956522 L70.2025336,5.73913043 L70.1673444,5.73913043 Z" id="Shape"></path>
                        <path d="M83.2929309,17.4956522 C83.6800125,16.3130435 84.1374726,15.026087 84.7005005,13.6347826 C85.2635283,12.2434783 85.8265561,10.9217391 86.4247732,9.63478261 C87.0229903,8.34782609 87.5860181,7.16521739 88.149046,6.12173913 C88.7120738,5.04347826 89.1695339,4.24347826 89.5214263,3.68695652 L81.6038474,3.68695652 L81.6038474,0.730434783 L92.8644041,0.730434783 L92.8644041,3.54782609 C92.6180794,3.93043478 92.3365655,4.4173913 91.9846731,5.07826087 C91.6327807,5.70434783 91.2808883,6.43478261 90.8938067,7.23478261 C90.5067251,8.03478261 90.1196434,8.90434783 89.7325618,9.80869565 C89.3454801,10.7130435 88.9583985,11.6521739 88.5713169,12.5565217 C88.2194245,13.4608696 87.8675321,14.3652174 87.5508289,15.2 C87.2341257,16.0347826 86.9878011,16.8 86.8118549,17.4956522 L83.2929309,17.4956522 Z" id="Shape"></path>
                        <path d="M65.416797,3.30434783 C65.0297154,2.92173913 64.8537692,2.50434783 64.8537692,1.94782609 C64.8537692,1.42608696 65.0297154,0.973913043 65.416797,0.591304348 C65.8038786,0.208695652 66.2261495,0.0347826087 66.7891774,0.0347826087 C67.317016,0.0347826087 67.7744761,0.208695652 68.1615577,0.591304348 C68.5486393,0.973913043 68.7245855,1.39130435 68.7245855,1.94782609 C68.7245855,2.46956522 68.5486393,2.92173913 68.1615577,3.30434783 C67.7744761,3.68695652 67.3522052,3.86086957 66.7891774,3.86086957 C66.2613388,3.86086957 65.8038786,3.68695652 65.416797,3.30434783 Z" id="Shape"></path>
                    </g>
                </g>
            </g>
        </g>
    </g>
</svg>