<?xml version="1.0" encoding="UTF-8" standalone="no"?>
<svg width="236px" height="80px" viewBox="0 0 236 80" version="1.1" xmlns="http://www.w3.org/2000/svg" xmlns:xlink="http://www.w3.org/1999/xlink">
    <!-- Generator: Sketch 49.1 (51147) - http://www.bohemiancoding.com/sketch -->
    <title>Group 7</title>
    <desc>Created with Sketch.</desc>
    <defs></defs>
    <g id="Website" stroke="none" stroke-width="1" fill="none" fill-rule="evenodd">
        <g id="Home" transform="translate(-461.000000, -3529.000000)">
            <g id="Group-7" transform="translate(461.000000, 3529.000000)">
                <rect id="Rectangle-2" fill="#FFFFFF" x="0" y="0" width="236" height="80"></rect>
                <g id="logo-wordmark" transform="translate(53.000000, 24.000000)" fill-rule="nonzero">
                    <g id="Group" fill="#EC5447">
                        <path d="M11.7331915,21.6975 C11.24636,21.6980245 10.8195046,21.3742842 10.6913475,20.9073333 C10.5421308,20.3658394 10.4667756,19.8068656 10.467305,19.2454167 L10.467305,14.0845833 C10.467305,12.056 12.1268794,10.40875 14.1644681,10.40875 C15.5926241,10.40875 16.9073759,11.2383333 17.5140426,12.5235 C17.7394446,13.0553137 17.5023914,13.6691997 16.9769415,13.9144065 C16.4514917,14.1596132 15.8250506,13.9486859 15.5575887,13.4365 C15.251157,12.7896353 14.5347383,12.4402936 13.8326945,12.5954033 C13.1306508,12.7505129 12.6304748,13.3686493 12.6284397,14.0836667 L12.6284397,19.2454167 C12.6284397,19.6166667 12.677305,19.9851667 12.7750355,20.3380833 C12.8649803,20.6612844 12.7976968,21.0077096 12.5931861,21.2743789 C12.3886754,21.5410482 12.0704812,21.697262 11.7331915,21.6965833" id="Shape"></path>
                        <path d="M16.7819858,25.52275 C15.7806324,25.5221562 14.7936371,25.2859403 13.9017021,24.8334167 C13.3712853,24.5619574 13.162132,23.9147387 13.4342553,23.3869167 C13.5648343,23.1333564 13.7915082,22.9418614 14.0642752,22.8546737 C14.3370422,22.767486 14.6334906,22.7917692 14.888227,22.9221667 C16.1763087,23.5752961 17.7131696,23.5162576 18.9467228,22.7662596 C20.1802761,22.0162615 20.9333932,20.6829977 20.9355319,19.2454167 L20.9355319,14.0836667 C20.9355319,10.3720833 17.8985106,7.35166667 14.1644681,7.35166667 C13.5676872,7.35166665 13.0839007,6.87067124 13.0839007,6.27733333 C13.0839007,5.68399543 13.5676872,5.20300002 14.1644681,5.203 C19.0878723,5.203 23.0957447,9.18683333 23.0957447,14.0836667 L23.0957447,19.2454167 C23.0916802,22.7106169 20.2672936,25.5187089 16.7819858,25.52275" id="Shape"></path>
                        <path d="M16.7819858,30.7266667 C10.4147518,30.7266667 5.23411348,25.575 5.23411348,19.2454167 L5.23411348,14.0845833 C5.24114403,10.929988 6.923533,8.01368513 9.6587234,6.41483333 C9.99190524,6.2209572 10.4038098,6.21853318 10.7392767,6.40847437 C11.0747435,6.59841556 11.2828073,6.95186539 11.2850923,7.33568271 C11.2873773,7.71950004 11.0835365,8.07537388 10.7503546,8.26925 C8.67627469,9.48102947 7.40019748,11.6918703 7.39432624,14.0836667 L7.39432624,19.2454167 C7.39432624,24.3915833 11.6059574,28.578 16.7819858,28.578 C18.3069504,28.578 19.76,28.226 21.1024113,27.5339167 C21.631978,27.2605357 22.2841816,27.4657385 22.5591489,27.99225 C22.8341162,28.5187615 22.6277227,29.1672024 22.098156,29.4405833 C20.4548183,30.285089 18.6318641,30.7257822 16.7819858,30.72575" id="Shape"></path>
                        <path d="M24.8613475,26.9353333 C24.4428032,26.9362251 24.0615178,26.6963247 23.8831598,26.3198687 C23.7048017,25.9434127 23.7615683,25.498359 24.0287943,25.1780833 C25.4115962,23.506582 26.1679527,21.409685 26.1687234,19.2454167 L26.1687234,14.0836667 C26.1687234,9.13366667 23.0385816,4.64108333 18.3788652,2.904 C18.3770213,2.904 17.1765957,2.50708333 16.25,2.34116667 C15.278227,2.16608333 14.1598582,2.14775 14.1487943,2.14775 C7.54553191,2.14775 2.16021277,7.502 2.16021277,14.0836667 L2.16021277,19.2454167 C2.16021277,19.8385015 1.67663267,20.3192917 1.08010638,20.3192917 C0.483580099,20.3192917 3.71480697e-15,19.8385015 3.64175357e-15,19.2454167 L3.64175357e-15,14.0836667 C2.84108434e-16,6.31766667 6.35432624,0 14.1644681,0 C14.233617,0.000916666667 15.4884397,0.0210833333 16.6344681,0.226416667 C17.7270213,0.422583333 19.045461,0.86075 19.1007801,0.88 C24.634539,2.94158333 28.3298582,8.24358333 28.3298582,14.0836667 L28.3298582,19.2454167 C28.3298582,21.9046667 27.3940426,24.4960833 25.6957447,26.5448333 C25.480922,26.8015 25.1720567,26.9353333 24.8613475,26.9353333 M7.62113475,33 C7.40262411,33 7.18134752,32.9349167 6.99049645,32.7974167 C3.96898516,30.63202 1.75268283,27.5338191 0.686879433,23.9855 C0.517570863,23.4167157 0.844085467,22.8191651 1.41617021,22.6508333 C1.98825496,22.4825015 2.58927299,22.8071324 2.75858156,23.3759167 C3.68728298,26.4680558 5.61907302,29.1677241 8.25269504,31.0539167 C8.63197383,31.3270309 8.79135919,31.8118176 8.64755681,32.2549288 C8.50375443,32.69804 8.0894407,32.9987869 7.62113475,33" id="Shape"></path>
                    </g>
                    <g id="Group" transform="translate(35.957447, 5.500000)" fill="#0A273C">
                        <path d="M5.96248227,5.43033333 C4.64219858,5.43033333 3.54687943,6.04358333 2.7041844,7.25358333 L2.59170213,5.85108333 C2.58450947,5.76891046 2.51516007,5.70593942 2.43219858,5.70625 L0.829787234,5.70625 C0.787324034,5.70624929 0.746613331,5.72308291 0.716673968,5.7530216 C0.686734606,5.7829603 0.670038236,5.82353248 0.670283688,5.86575 L0.670283688,16.9015 C0.670283688,16.9885833 0.741276596,17.0600833 0.829787234,17.0600833 L2.60460993,17.0600833 C2.69270131,17.0600833 2.76411348,16.9890832 2.76411348,16.9015 L2.76411348,9.52141667 C3.59021277,8.063 4.53248227,7.38375 5.72737589,7.38375 C5.98553191,7.38375 6.22801418,7.40758333 6.46219858,7.45616667 C6.57652482,7.48 6.83560284,7.56616667 7.0006383,7.62391667 C7.03857436,7.63684949 7.08027724,7.63288909 7.11506481,7.61304991 C7.14985239,7.59321074 7.17434522,7.55942007 7.1822695,7.52033333 L7.5335461,5.81991667 C7.54855614,5.74976454 7.50681063,5.67992495 7.43765957,5.6595 C7.2533812,5.60296907 7.06700512,5.55343321 6.87893617,5.511 C6.57692192,5.45603939 6.27043312,5.42903495 5.96340426,5.43033333 L5.96248227,5.43033333 Z M16.2850355,10.1080833 L10.3262411,10.1080833 C10.6996454,8.25183333 11.9563121,7.10783333 13.6426241,7.10783333 C14.4244681,7.10783333 15.0468085,7.33333333 15.4893617,7.77791667 C15.9964539,8.28941667 16.2702837,9.09241667 16.2850355,10.1080833 Z M13.5992908,5.42941667 C10.3834043,5.42941667 8.13652482,7.83108333 8.13652482,11.2658333 C8.13652482,15.3596667 10.5244681,17.677 14.4650355,17.29475 C15.6940426,17.1755833 16.8612766,16.7044167 17.8634752,15.9875833 C17.9325641,15.937499 17.9500025,15.8423427 17.9031206,15.77125 L17.1074468,14.5740833 C17.061883,14.5045724 16.9685022,14.4845316 16.898156,14.5291667 C16.771844,14.6098333 16.5846809,14.729 16.5007801,14.7766667 C15.6138298,15.279 14.6439007,15.5521667 13.7283688,15.5521667 C10.9707092,15.5521667 10.2967376,13.4493333 10.2331206,11.616 L17.9870213,11.616 C18.1114894,11.616 18.2175177,11.52525 18.2359574,11.4033333 C18.2525532,11.29975 18.2700709,11.1851667 18.2774468,11.1191667 C18.2986525,10.9175 18.3143262,10.6975 18.3143262,10.5215 C18.3143262,7.33333333 16.5514894,5.42941667 13.5992908,5.42941667 Z M28.2846809,8.73216667 L28.2846809,14.05525 C27.3571631,15.0910833 26.4075177,15.57325 25.3002128,15.57325 C23.4165957,15.57325 22.3360284,13.9883333 22.3360284,11.2236667 C22.3360284,8.66158333 23.4165957,7.19216667 25.3002128,7.19216667 C26.3770922,7.19216667 27.3267376,7.68166667 28.2846809,8.73216667 Z M28.2846809,6.908 C27.2548227,5.94091667 26.1226241,5.4505 24.9148227,5.4505 C22.033617,5.4505 20.2431206,7.65416667 20.2431206,11.2016667 C20.2431206,15.0296667 21.9819858,17.3158333 24.893617,17.3158333 C26.2037589,17.3158333 27.3507092,16.8135 28.3888652,15.7859167 L28.5216312,16.9189167 C28.5308511,16.9995833 28.599078,17.0591667 28.6802128,17.0591667 L30.2199291,17.0591667 C30.3076602,17.0586625 30.3785121,16.9878098 30.3785106,16.9005833 L30.3785106,0.846083333 C30.3785106,0.758500177 30.3070985,0.6875 30.2190071,0.6875 L28.4441844,0.6875 C28.356093,0.6875 28.2846809,0.758500177 28.2846809,0.846083333 L28.2846809,6.908 Z M37.701844,10.4775 C36.3188652,10.1319167 35.1258156,9.83216667 35.1258156,8.73583333 C35.1258156,7.78433333 35.9242553,7.19308333 37.2122695,7.19308333 C37.9959574,7.19308333 38.9566667,7.40758333 39.777234,7.75408333 C39.8986231,7.80832321 40.0188168,7.86516987 40.1377305,7.92458333 C40.261098,7.98496581 40.4103906,7.93657314 40.4742553,7.8155 L41.0919858,6.644 C41.1242177,6.58235402 41.1294299,6.51021498 41.1063914,6.44462152 C41.0833528,6.37902807 41.0341064,6.32579661 40.9702837,6.2975 C40.8497303,6.24304388 40.7283204,6.19048179 40.6060993,6.13983333 C39.4941844,5.69341667 38.3066667,5.4505 37.2131915,5.4505 C34.7247518,5.4505 33.0531915,6.79708333 33.0531915,8.79816667 C33.0531915,11.2328333 35.1046099,11.7645 36.9144681,12.2338333 C38.3195745,12.59775 39.5338298,12.9130833 39.5338298,14.0305 C39.5338298,15.3725 38.1056738,15.57325 37.2565248,15.57325 C36.2358865,15.57325 35.1433333,15.2890833 34.2047518,14.78675 C34.1200148,14.7399233 34.0361015,14.6916382 33.9530496,14.6419167 C33.8333122,14.5710431 33.6784879,14.6095259 33.606383,14.7280833 L32.9158156,15.8409167 C32.8798387,15.8988284 32.8688502,15.9687103 32.8853324,16.034776 C32.9018145,16.1008417 32.9443767,16.1575174 33.0034043,16.192 C33.1324823,16.2671667 33.2846099,16.35425 33.3629787,16.3955 C34.5265248,16.9986667 35.8615603,17.3149167 37.2556028,17.3149167 C39.9662411,17.3149167 41.5843262,16.0554167 41.5843262,13.9461667 C41.5843262,11.4500833 39.522766,10.9330833 37.702766,10.4775 L37.701844,10.4775 Z M49.4341135,15.2689167 C49.0560993,15.45775 48.6596454,15.5530833 48.2475177,15.5530833 C47.3513475,15.5530833 46.9521277,15.0571667 46.9521277,13.9461667 L46.9521277,7.38283333 L49.9790071,7.38283333 C50.0667423,7.38334337 50.1384198,7.31330808 50.1394326,7.22608333 L50.1394326,5.86575 C50.1394326,5.77766058 50.0676077,5.70625 49.9790071,5.70625 L46.9521277,5.70625 L46.9521277,2.63083333 C46.9516205,2.54310211 46.8799439,2.47224855 46.7917021,2.47225 L45.0168794,2.47225 C44.9291483,2.4727542 44.8582964,2.54360691 44.8582979,2.63083333 L44.8582979,5.70441667 L43.0714894,5.70441667 C42.9828888,5.70441667 42.9110638,5.77582725 42.9110638,5.86391667 L42.9110638,7.22425 C42.9110638,7.31133333 42.9829787,7.38191667 43.0714894,7.38191667 L44.8582979,7.38191667 L44.8582979,13.9654167 C44.8582979,16.2195 45.9038298,17.3130833 48.0539007,17.3130833 C48.7546099,17.3130833 49.5189362,17.1086667 50.1864539,16.7520833 C50.2786525,16.7035 50.4519858,16.5925833 50.5893617,16.5036667 C50.7021256,16.4302286 50.7366779,16.2815006 50.6677305,16.1663333 L50.0776596,15.1763333 C50.0430821,15.1177206 49.9859416,15.0756779 49.919457,15.0599314 C49.8529725,15.0441848 49.7829039,15.0560986 49.725461,15.0929167 C49.6166667,15.1616667 49.4949645,15.2368333 49.4341135,15.2670833 L49.4341135,15.2689167 Z M58.8439007,11.88 L58.8439007,14.3366667 C58.1828369,15.1525 57.1114894,15.6383333 55.965461,15.6383333 C54.9190071,15.6383333 54.2422695,15.0819167 54.2422695,14.2220833 C54.2422695,12.81775 55.7478723,12.0505 58.8439007,11.8790833 L58.8439007,11.88 Z M60.9368085,14.498 L60.9368085,8.99066667 C60.9368085,6.70816667 59.4985106,5.4505 56.8846809,5.4505 C55.7912057,5.4505 54.4829078,5.74566667 53.2124113,6.27 C53.0897872,6.32041667 52.8509929,6.42858333 52.6712057,6.512 C52.6093434,6.54039802 52.561581,6.59235653 52.5386857,6.65616248 C52.5157904,6.71996844 52.5196893,6.79025112 52.5495035,6.85116667 L53.1506383,8.08225 C53.1798509,8.14312405 53.2324612,8.18975871 53.2966258,8.21165571 C53.3607905,8.23355271 53.4311167,8.22887178 53.491773,8.19866667 C53.6420567,8.1235 53.8292199,8.03366667 53.9204965,7.99058333 C55.0231915,7.48825 56.0041844,7.23433333 56.8431915,7.23433333 C58.1524113,7.23433333 58.8439007,7.83383333 58.8439007,8.96866667 L58.8439007,10.4353333 C54.4156028,10.6553333 52.1705674,11.97075 52.1705674,14.3495 C52.1705674,16.1223333 53.5415603,17.3149167 55.5800709,17.3149167 C57.2839007,17.3149167 58.4520567,16.5385 59.1684397,15.82075 C59.5556738,16.59075 60.2112057,16.97025 61.3277305,17.0591667 C61.422695,17.0683333 61.6246099,17.0729167 61.7905674,17.0756667 C61.8587653,17.0771464 61.9246861,17.0512424 61.9734384,17.0038062 C62.0221908,16.9563701 62.0496616,16.8914039 62.0496454,16.8235833 L62.0496454,15.7116667 C62.0493045,15.5768177 61.9426445,15.4659345 61.8071631,15.4595833 C61.7507981,15.4575926 61.6945217,15.4536179 61.6384397,15.4476667 C61.1728369,15.3679167 60.9377305,15.0489167 60.9377305,14.498 L60.9368085,14.498 Z M76.9249645,5.43033333 C75.5530496,5.43033333 74.2465957,6.00783333 73.0406383,7.14725 C72.478227,6.00783333 71.434539,5.43033333 69.9307801,5.43033333 C68.703617,5.43033333 67.4635461,5.96383333 66.4060284,6.93916667 L66.3248936,5.85291667 C66.3186374,5.77037004 66.2495727,5.70649448 66.1663121,5.70625 L64.5196454,5.70625 C64.4771822,5.70624929 64.4364715,5.72308291 64.4065321,5.7530216 C64.3765928,5.7829603 64.3598964,5.82353248 64.3601418,5.86575 L64.3601418,16.9015 C64.3601418,16.9885833 64.4311348,17.0600833 64.5196454,17.0600833 L66.2944681,17.0600833 C66.38235,17.0595826 66.453468,16.9888749 66.4539716,16.9015 L66.4539716,8.77066667 C67.3003546,7.73941667 68.3965957,7.17108333 69.5463121,7.17108333 C70.8094326,7.17108333 71.3967376,7.86408333 71.3967376,9.35275 L71.3967376,16.9015 C71.3967376,16.9885833 71.4686525,17.0600833 71.5562411,17.0600833 L73.3522695,17.0600833 C73.4403609,17.0600833 73.511773,16.9890832 73.511773,16.9015 L73.511773,9.47833333 C73.511773,9.21066667 73.4924113,8.93016667 73.4739716,8.70283333 C74.3434043,7.71283333 75.4304255,7.17016667 76.5404965,7.17016667 C77.7851773,7.17016667 78.390922,7.88333333 78.390922,9.35183333 L78.390922,16.9005833 C78.390922,16.9876667 78.4628369,17.0591667 78.5513475,17.0591667 L80.3252482,17.0591667 C80.4131301,17.0586659 80.4842481,16.9879582 80.4847518,16.9005833 L80.4847518,9.39308333 C80.4847518,6.83741667 79.2197872,5.42941667 76.9249645,5.42941667 L76.9249645,5.43033333 Z M91.2304965,11.2236667 C91.2304965,13.9883333 90.157305,15.5741667 88.2893617,15.5741667 C87.1746809,15.5741667 86.1973759,15.0773333 85.3030496,14.0570833 L85.3030496,8.73125 C86.2619149,7.68166667 87.2032624,7.19125 88.2663121,7.19125 C90.1499291,7.19125 91.2295745,8.6625 91.2295745,11.2236667 L91.2304965,11.2236667 Z M88.6729078,5.45141667 C87.426383,5.45141667 86.2407092,5.97666667 85.2246809,6.97583333 L85.1094326,5.84833333 C85.1004966,5.7674568 85.0317643,5.70623108 84.9499291,5.70625 L83.391773,5.70625 C83.3492253,5.70600619 83.3083229,5.72257722 83.2780643,5.75231751 C83.2478056,5.78205781 83.2306694,5.82253109 83.2304255,5.86483333 L83.2304255,21.1539167 C83.2304255,21.2419167 83.3023404,21.3125 83.3908511,21.3125 L85.1426241,21.3125 C85.1850866,21.312744 85.2258942,21.296144 85.2560066,21.2663774 C85.2861191,21.2366107 85.3030504,21.1961349 85.3030496,21.1539167 L85.3030496,15.8629167 C86.3144681,16.8254167 87.4540426,17.3149167 88.6941135,17.3149167 C91.5928369,17.3149167 93.3234043,15.0296667 93.3234043,11.2025833 C93.3234043,7.65416667 91.5412057,5.45141667 88.6729078,5.45141667 Z" id="Shape"></path>
                    </g>
                </g>
            </g>
        </g>
    </g>
</svg>