<?xml version="1.0" encoding="UTF-8" standalone="no"?>
<svg width="40px" height="48px" viewBox="0 0 40 48" version="1.1" xmlns="http://www.w3.org/2000/svg" xmlns:xlink="http://www.w3.org/1999/xlink">
    <!-- Generator: Sketch 49.1 (51147) - http://www.bohemiancoding.com/sketch -->
    <title>BOOK</title>
    <desc>Created with Sketch.</desc>
    <defs></defs>
    <g id="Website" stroke="none" stroke-width="1" fill="none" fill-rule="evenodd">
        <g id="Home" transform="translate(-1098.000000, -1441.000000)" fill="#8C43FF">
            <path d="M1135.2,1477 L1102.7964,1477 C1101.9216,1477 1101.1092,1477.2544 1100.4,1477.6684 L1100.4,1445.8 C1100.4,1444.4776 1101.4776,1443.4 1102.7964,1443.4 L1135.2,1443.4 L1135.2,1477 Z M1135.2,1481.8 L1106.4,1481.8 L1106.4,1484.2 L1135.2,1484.2 L1135.2,1486.6 L1102.7964,1486.6 C1101.8952,1486.6 1101.1176,1486.0912 1100.7084,1485.3532 C1100.5188,1485.0076 1100.4,1484.6152 1100.4,1484.188 L1100.4,1481.812 C1100.4,1480.4812 1101.48,1479.4 1102.7964,1479.4 L1135.2,1479.4 L1135.2,1481.8 Z M1135.2,1441 L1137.6,1441 L1137.6,1443.4 L1137.6,1477 L1137.6,1479.4 L1137.6,1486.6 L1137.6,1489 L1135.2,1489 L1102.7964,1489 C1100.8812,1489 1099.242,1487.872 1098.474,1486.2436 C1098.1776,1485.6208 1098,1484.9332 1098,1484.2 L1098,1484.188 L1098,1481.812 L1098,1445.8 C1098,1443.1492 1100.1576,1441 1102.7964,1441 L1135.2,1441 Z M1112.4,1456.6 L1118.4,1453 L1124.4,1456.6 L1124.4,1463.8 L1118.4,1467.4 L1112.4,1463.8 L1112.4,1456.6 Z M1111.1652,1465.858 L1117.1652,1469.458 C1117.9248,1469.914 1118.8752,1469.914 1119.6348,1469.458 L1125.6348,1465.858 C1126.3572,1465.4248 1126.8,1464.6424 1126.8,1463.8 L1126.8,1456.6 C1126.8,1455.7576 1126.3572,1454.9752 1125.6348,1454.542 L1119.6348,1450.942 C1118.8752,1450.486 1117.9248,1450.486 1117.1652,1450.942 L1111.1652,1454.542 C1110.4428,1454.9752 1110,1455.7576 1110,1456.6 L1110,1463.8 C1110,1464.6424 1110.4428,1465.4248 1111.1652,1465.858 Z" id="BOOK"></path>
        </g>
    </g>
</svg>