<?xml version="1.0" encoding="UTF-8" standalone="no"?>
<svg width="50px" height="48px" viewBox="0 0 50 48" version="1.1" xmlns="http://www.w3.org/2000/svg" xmlns:xlink="http://www.w3.org/1999/xlink">
    <!-- Generator: Sketch 49.1 (51147) - http://www.bohemiancoding.com/sketch -->
    <title>FRONT END</title>
    <desc>Created with Sketch.</desc>
    <defs></defs>
    <g id="Website" stroke="none" stroke-width="1" fill="none" fill-rule="evenodd">
        <g id="Home" transform="translate(-695.000000, -1441.000000)" fill="#8C43FF">
            <path d="M742.619048,1485.3916 C742.619048,1486.0576 742.079762,1486.6 741.42381,1486.6 L698.57619,1486.6 C697.914286,1486.6 697.380952,1486.0624 697.380952,1485.3916 L697.380952,1459 L697.380952,1454.2 L697.380952,1453 L700.952381,1453 L708.095238,1453 L711.666667,1453 L715.238095,1453 L730.190476,1453 L742.619048,1453 L742.619048,1459 L742.619048,1485.3916 Z M698.57619,1443.4 L700.952381,1443.4 L708.095238,1443.4 L711.666667,1443.4 L715.238095,1443.4 L741.42381,1443.4 C742.082143,1443.4 742.613095,1443.934 742.617857,1444.6 C742.617857,1444.6024 742.619048,1444.6048 742.619048,1444.6084 L742.619048,1450.6 L715.238095,1450.6 L711.666667,1450.6 L708.095238,1450.6 L700.952381,1450.6 L697.380952,1450.6 L697.380952,1444.6084 C697.380952,1444.6048 697.382143,1444.6024 697.382143,1444.6 C697.386905,1443.9388 697.922619,1443.4 698.57619,1443.4 L698.57619,1443.4 Z M744.99881,1444.6 C744.99881,1444.6024 745,1444.606 745,1444.6084 L745,1459 L745,1485.3916 C745,1487.3848 743.392857,1489 741.42381,1489 L698.57619,1489 C696.60119,1489 695,1487.3884 695,1485.3916 L695,1459 L695,1454.2 L695,1444.6084 C695,1444.606 695.00119,1444.6024 695.00119,1444.6 C695.004762,1443.0364 696.002381,1441.7188 697.380952,1441.222 C697.755952,1441.0864 698.154762,1441 698.57619,1441 L700.952381,1441 L708.095238,1441 L711.666667,1441 L715.238095,1441 L741.42381,1441 C743.396429,1441 744.994048,1442.6068 744.99881,1444.6 Z M700.952381,1448.19976 C701.610714,1448.19976 702.142857,1447.66336 702.142857,1446.99976 C702.142857,1446.33616 701.610714,1445.79976 700.952381,1445.79976 C700.294048,1445.79976 699.761905,1446.33616 699.761905,1446.99976 C699.761905,1447.66336 700.294048,1448.19976 700.952381,1448.19976 Z M704.52381,1448.19976 C705.182143,1448.19976 705.714286,1447.66336 705.714286,1446.99976 C705.714286,1446.33616 705.182143,1445.79976 704.52381,1445.79976 C703.865476,1445.79976 703.333333,1446.33616 703.333333,1446.99976 C703.333333,1447.66336 703.865476,1448.19976 704.52381,1448.19976 Z M708.095238,1448.19976 C708.753571,1448.19976 709.285714,1447.66336 709.285714,1446.99976 C709.285714,1446.33616 708.753571,1445.79976 708.095238,1445.79976 C707.436905,1445.79976 706.904762,1446.33616 706.904762,1446.99976 C706.904762,1447.66336 707.436905,1448.19976 708.095238,1448.19976 Z M730.365476,1461.75136 C730.313095,1461.69976 730.247619,1461.67456 730.190476,1461.63376 C729.72619,1461.31096 729.095238,1461.33376 728.682143,1461.75136 C728.216667,1462.22056 728.216667,1462.97896 728.682143,1463.44816 L730.190476,1464.96856 L733.72619,1468.53256 L730.190476,1472.09896 L728.682143,1473.61936 C728.216667,1474.08616 728.216667,1474.84696 728.682143,1475.31616 C729.095238,1475.73136 729.72619,1475.75776 730.190476,1475.43256 C730.247619,1475.39296 730.313095,1475.36896 730.365476,1475.31616 L736.252381,1469.38096 C736.717857,1468.91296 736.717857,1468.15336 736.252381,1467.68416 L730.365476,1461.75136 Z M723.480714,1457.88184 C723.097381,1457.73064 722.69619,1457.81224 722.380714,1458.03184 C722.192619,1458.16264 722.027143,1458.33184 721.937857,1458.56224 L721.76881,1459.00024 L717.750952,1469.34664 L714.129524,1478.67784 C713.889048,1479.29464 714.191429,1479.99064 714.804524,1480.23184 C715.417619,1480.47304 716.108095,1480.16824 716.347381,1479.55264 L717.750952,1475.93344 L722.380714,1464.00664 L724.154524,1459.43704 C724.210476,1459.29304 724.230714,1459.14544 724.230714,1459.00024 C724.230714,1458.52024 723.950952,1458.06664 723.480714,1457.88184 Z M711.450476,1463.44816 C711.915952,1462.97896 711.915952,1462.22056 711.450476,1461.75136 C710.985,1461.28216 710.232619,1461.28216 709.767143,1461.75136 L708.095714,1463.43616 L703.880238,1467.68416 C703.414762,1468.15336 703.414762,1468.91296 703.880238,1469.38096 L708.095714,1473.63016 L709.767143,1475.31616 C710.232619,1475.78416 710.985,1475.78416 711.450476,1475.31616 C711.915952,1474.84696 711.915952,1474.08616 711.450476,1473.61936 L708.095714,1470.23656 L706.405238,1468.53256 L708.095714,1466.82976 L711.450476,1463.44816 Z" id="FRONT-END"></path>
        </g>
    </g>
</svg>