<?xml version="1.0" encoding="UTF-8" standalone="no"?>
<svg width="200px" height="50px" viewBox="0 0 200 50" version="1.1" xmlns="http://www.w3.org/2000/svg" xmlns:xlink="http://www.w3.org/1999/xlink">
    <!-- Generator: Sketch 49.1 (51147) - http://www.bohemiancoding.com/sketch -->
    <title>Group 23</title>
    <desc>Created with Sketch.</desc>
    <defs></defs>
    <g id="Website" stroke="none" stroke-width="1" fill="none" fill-rule="evenodd">
        <g id="Group-23">
            <rect id="Rectangle-9" fill="#FFFFFF" x="0" y="0" width="200" height="50"></rect>
            <g id="Group-4" transform="translate(8.000000, 4.000000)">
                <g id="Group-18">
                    <path d="M3.5,3.5 C8.16666667,-1.16666667 33.8333333,-1.16666667 38.5,3.5 C43.1666667,8.16666667 43.1666667,33.8333333 38.5,38.5 C33.8333333,43.1666667 8.16666667,43.1666667 3.5,38.5 C-1.16666667,33.8333333 -1.16666667,8.16666667 3.5,3.5 Z" id="Rectangle-2" fill="#AE69EA"></path>
                    <g id="Group-17" transform="translate(10.266667, 7.000000)">
                        <path d="M10.7302141,27.9697297 C16.5470391,27.9697297 21.4604282,24.2021091 21.4604282,17.9526637 C21.4604282,12.4203909 14.0933189,0 10.7302141,0 C7.36710924,5.36785956e-16 0,12.4203909 0,17.9526637 C0,24.2021091 4.91338905,27.9697297 10.7302141,27.9697297 Z" id="Oval-4" fill="#FFFFFF"></path>
                        <path d="M10.8363293,25.1682031 C15.0997993,25.1682031 18.4344893,21.7322512 18.4344893,17.8125087 C18.7010914,13.1176477 10.8363293,2.688 10.8363293,2.688 C10.8363293,2.688 2.97156714,13.1176477 3.23816924,17.8125087 C3.23816924,21.7322512 6.57285933,25.1682031 10.8363293,25.1682031 Z" id="Oval-4" fill="#AE69EA"></path>
                        <path d="M10.7829606,22.4328067 C13.5930335,22.4328067 15.7909433,20.1681548 15.7909433,17.5846342 C15.966662,14.4902294 10.7829606,7.616 10.7829606,7.616 C10.7829606,7.616 5.59925919,14.4902294 5.77497788,17.5846342 C5.77497788,20.1681548 7.97288767,22.4328067 10.7829606,22.4328067 Z" id="Oval-4" fill="#FFFFFF"></path>
                    </g>
                </g>
                <path d="M68.7464349,13.4530627 L63.7314632,20.747567 L58.7164915,13.4530627 C58.4765407,13.0931365 58.1646046,12.9011759 57.7566883,12.9011759 C57.1328162,12.9011759 56.6769097,13.4050726 56.7009047,14.0049496 C56.7009047,14.2449004 56.77289,14.4608561 56.8928654,14.6528167 L62.6276895,22.6911685 L62.6276895,28.8099139 C62.6276895,29.4097908 63.1315862,29.8896924 63.7314632,29.8896924 C64.3313402,29.8896924 64.8112418,29.4097908 64.8112418,28.8099139 L64.8112418,22.6911685 L70.5700609,14.6528167 C70.6900363,14.4608561 70.7620216,14.2449004 70.7620216,14.0049496 C70.7860166,13.4050726 70.3301101,12.9011759 69.706238,12.9011759 C69.2983217,12.9011759 68.9863856,13.0931365 68.7464349,13.4530627 Z M83.815345,27.5861648 L75.9689539,27.5861648 L75.9689539,14.0049496 C75.9689539,13.4050726 75.4650572,12.9011759 74.8651802,12.9011759 C74.2653032,12.9011759 73.7854016,13.4050726 73.7854016,14.0049496 L73.7854016,28.258027 C73.7854016,29.0978548 74.4572639,29.769717 75.2970917,29.769717 L83.815345,29.769717 C84.415222,29.769717 84.9191187,29.2898154 84.9191187,28.6899385 C84.9191187,28.0900615 84.415222,27.5861648 83.815345,27.5861648 Z M103.611286,21.059503 C104.835035,20.5076162 105.962804,19.3558524 105.962804,17.3642607 C105.962804,14.7727921 104.091188,13.0211513 100.587906,13.0211513 L94.925067,13.0211513 C94.32519,13.0211513 93.8452884,13.525048 93.8452884,14.124925 L93.8452884,28.6899385 C93.8452884,29.2898154 94.32519,29.769717 94.925067,29.769717 L100.731876,29.769717 C105.170966,29.769717 106.898612,27.8741057 106.898612,25.0666814 C106.898612,22.859134 105.338932,21.6113899 103.611286,21.059503 Z M103.875232,17.5322263 C103.875232,19.0919065 103.035404,20.2676654 100.012024,20.2676654 L96.0288407,20.2676654 L96.0288407,15.0607331 L100.41994,15.0607331 C102.603493,15.0607331 103.875232,16.0445314 103.875232,17.5322263 Z M100.515921,27.7301353 L96.0288407,27.7301353 L96.0288407,22.235262 L100.539916,22.235262 C103.29935,22.235262 104.787045,23.0750898 104.787045,24.9707011 C104.787045,26.6023665 103.803247,27.7301353 100.515921,27.7301353 Z M114.241106,30.0096678 C116.376668,30.0096678 117.696398,28.9058942 118.704191,27.8021205 L118.704191,28.7859188 C118.704191,29.4097908 119.208088,29.8896924 119.807965,29.8896924 C120.407842,29.8896924 120.887743,29.4097908 120.887743,28.7859188 L120.887743,18.4920295 C120.887743,17.8921525 120.407842,17.4122509 119.807965,17.4122509 C119.208088,17.4122509 118.704191,17.8921525 118.704191,18.4920295 L118.704191,25.6905535 C117.744388,26.8903075 116.496644,27.9940811 114.768998,27.9940811 C112.897382,27.9940811 112.129539,26.8903075 112.129539,25.0666814 L112.129539,18.4920295 C112.129539,17.8921525 111.649638,17.4122509 111.049761,17.4122509 C110.449884,17.4122509 109.945987,17.8921525 109.945987,18.4920295 L109.945987,25.3066322 C109.945987,27.8741057 111.505667,30.0096678 114.241106,30.0096678 Z M127.174454,13.7170086 C127.174454,13.0451464 126.622568,12.4932595 125.950705,12.4932595 L125.806735,12.4932595 C125.134873,12.4932595 124.582986,13.0451464 124.582986,13.7170086 L124.582986,13.8129889 C124.582986,14.4848512 125.134873,15.036738 125.806735,15.036738 L125.950705,15.036738 C126.622568,15.036738 127.174454,14.4848512 127.174454,13.8129889 L127.174454,13.7170086 Z M125.854725,17.4122509 C125.254848,17.4122509 124.774946,17.8921525 124.774946,18.5160246 L124.774946,28.8099139 C124.774946,29.4097908 125.254848,29.8896924 125.854725,29.8896924 C126.478597,29.8896924 126.958499,29.4097908 126.958499,28.8099139 L126.958499,18.5160246 C126.958499,17.8921525 126.478597,17.4122509 125.854725,17.4122509 Z M132.117441,12.1333333 C131.517564,12.1333333 131.037662,12.6132349 131.037662,13.237107 L131.037662,28.8099139 C131.037662,29.4097908 131.517564,29.8896924 132.117441,29.8896924 C132.741313,29.8896924 133.221214,29.4097908 133.221214,28.8099139 L133.221214,13.237107 C133.221214,12.6132349 132.741313,12.1333333 132.117441,12.1333333 Z M142.26736,17.2922755 C139.363955,17.2922755 136.46055,19.5718081 136.46055,23.6509717 C136.46055,27.7301353 139.363955,30.0096678 142.26736,30.0096678 C143.947015,30.0096678 145.266745,29.3378056 146.370518,28.1860418 L146.370518,28.8099139 C146.370518,29.4097908 146.85042,29.8896924 147.474292,29.8896924 C148.074169,29.8896924 148.554071,29.4097908 148.554071,28.8099139 L148.554071,13.237107 C148.554071,12.6132349 148.074169,12.1333333 147.474292,12.1333333 C146.85042,12.1333333 146.370518,12.6132349 146.370518,13.237107 L146.370518,19.1159016 C145.266745,17.9641377 143.947015,17.2922755 142.26736,17.2922755 Z M142.579296,27.9700861 C140.299763,27.9700861 138.644103,26.4823911 138.644103,23.6509717 C138.644103,20.8195523 140.299763,19.3318573 142.579296,19.3318573 C144.138976,19.3318573 145.43471,20.0996999 146.370518,21.1314883 L146.370518,26.1704551 C145.43471,27.2022435 144.138976,27.9700861 142.579296,27.9700861 Z M161.703374,27.1302583 C161.535409,27.1302583 161.415433,27.1542533 161.271463,27.2262386 C160.383645,27.6821451 159.471832,27.9700861 158.032127,27.9700861 C155.440658,27.9700861 154.072939,26.5783714 153.832988,24.4188142 L161.96732,24.4188142 C162.639182,24.4188142 163.071094,23.9389126 163.071094,23.3390356 C163.071094,20.14769 161.055507,17.2922755 157.360265,17.2922755 C153.377082,17.2922755 151.625441,20.4116359 151.625441,23.6509717 C151.625441,27.6821451 153.928968,30.0096678 157.840166,30.0096678 C159.927738,30.0096678 160.983522,29.5537613 162.039305,28.9538843 C162.375237,28.7619237 162.663178,28.4499877 162.663178,28.0660664 C162.663178,27.5141795 162.207271,27.1302583 161.703374,27.1302583 Z M157.360265,19.1398967 C158.89595,19.1398967 160.767566,20.14769 160.911537,22.6431783 L153.832988,22.6431783 C153.976959,20.14769 155.82458,19.1398967 157.360265,19.1398967 Z M172.093244,17.2922755 L171.973269,17.2922755 C170.317608,17.2922755 169.069864,18.3960492 168.206041,19.547813 L168.206041,18.5160246 C168.206041,17.9161476 167.702144,17.4122509 167.102267,17.4122509 C166.50239,17.4122509 166.022489,17.9161476 166.022489,18.5160246 L166.022489,28.8099139 C166.022489,29.4097908 166.50239,29.8896924 167.102267,29.8896924 C167.702144,29.8896924 168.206041,29.4097908 168.206041,28.8099139 L168.206041,21.5154096 C169.045869,20.2676654 170.341603,19.4038425 171.925278,19.4038425 L172.045254,19.4038425 C172.669126,19.4038425 173.149027,18.9959262 173.149027,18.3720541 C173.149027,17.7721771 172.693121,17.2922755 172.093244,17.2922755 Z M176.748289,20.9635227 C176.748289,20.0037195 177.732088,19.2838671 179.507724,19.2838671 C180.563507,19.2838671 181.47532,19.4758278 182.243163,19.7157786 C182.339143,19.7397737 182.435123,19.7637687 182.555099,19.7637687 C183.106986,19.7637687 183.514902,19.3078622 183.514902,18.8039655 C183.514902,18.4440393 183.274951,18.036123 182.819045,17.8921525 C181.835246,17.5322263 180.659487,17.2922755 179.339758,17.2922755 C176.220398,17.2922755 174.660717,18.9239409 174.660717,21.0834981 C174.660717,25.4506027 181.859241,24.2268536 181.859241,26.2904305 C181.859241,27.3702091 181.043409,27.9940811 179.195788,27.9940811 C177.780078,27.9940811 176.79628,27.65815 175.932457,27.2742287 C175.764491,27.2022435 175.644516,27.1782484 175.500545,27.1782484 C174.948658,27.1782484 174.564737,27.65815 174.564737,28.1380516 C174.564737,28.4739827 174.732703,28.7619237 174.972653,28.9298893 C176.196403,29.6017515 177.588117,30.0096678 179.339758,30.0096678 C182.411128,30.0096678 183.970808,28.4019975 183.970808,26.458396 C183.970808,21.7553604 176.748289,23.459011 176.748289,20.9635227 Z" id="YL-Builders" stroke="#2A3033" stroke-width="0.5" fill="#2A3033"></path>
            </g>
        </g>
    </g>
</svg>